<?xml version="1.0" encoding="utf-8"?>
<!-- Generator: sketch.js 3.0 <https://api.sketch.io/> -->
<svg version="1.1" xmlns="http://www.w3.org/2000/svg" xmlns:xlink="http://www.w3.org/1999/xlink" xmlns:sketchjs="https://sketch.io/dtd/" id="Capa_1" x="0" y="0" width="200" height="200" viewBox="0 0 200 200" sketchjs:version="3.0">
<defs></defs>
	<path d="M116.324,47.953c1.377-12.106,2.397-24.218,1.418-36.455c-0.148-1.843-1.391-3.229-3.298-3.298  c-6.914-0.25-13.653-1.407-20.486,0.143c-1.543,0.35-2.221,1.739-2.402,3.155c-1.482,11.567-2.381,23.532-1.398,35.179  c-0.564,5.839-1.034,11.694-1.977,17.471c-0.102,0.625-0.029,1.211,0.126,1.76c-1.052,3.573-1.322,7.572-1.191,9.796  c0.87,14.763,14.992,16.838,26.502,12.383c1.52-0.588,2.64-1.746,2.644-3.473c0.028-11.013,0.167-21.989,1.695-32.914  C118.188,50.05,117.419,48.746,116.324,47.953z M97.788,14.292c1.872-0.251,3.753-0.274,5.636-0.22  c-0.492,0.511-0.895,1.126-1.286,1.756c-0.213-0.285-0.437-0.545-0.673-0.778c-0.152-0.181-0.327-0.337-0.532-0.472  c-0.023-0.018-0.045-0.043-0.068-0.06c0.009,0.011,0.017,0.022,0.026,0.034c-0.543-0.344-1.203-0.515-1.799-0.286  c-0.653,0.251-1.084,0.569-1.378,0.929C97.738,14.893,97.756,14.592,97.788,14.292z M93.986,75.661  c-0.009-0.046-0.014-0.151-0.022-0.207c0.646,1.469,1.67,2.611,3.173,3.264c0.356,1.323,0.811,2.611,1.544,3.821  C96.416,81.542,94.706,79.433,93.986,75.661z" sketchjs:uid="0" fill="#ffffff" stroke="transparent"></path>
	<path d="M135.073,35.454c-0.119,0.024-0.195,0.095-0.303,0.132c-0.648-0.192-1.387-0.186-2.163,0.175  c-8.752,4.067-9.64,12.952-6.588,20.864c-0.939,1.718-0.596,4.019,1.834,4.351c63.742,8.707,14.742,95.919-29.458,98.919  c-55.932,3.797-82.619-86.13-22.551-101.522c0.334-0.085,0.593-0.226,0.825-0.384c1.314,0.155,2.81-0.924,2.25-2.439  c-2.136-5.779-1.108-10.946,0.435-16.653c0.598-2.213-1.717-3.643-3.594-2.762c-0.439,0.206-0.803,0.481-1.135,0.784  c-0.112-0.249-0.248-0.479-0.416-0.682c0.337-0.013,0.663-0.06,1.002-0.064c1.96-0.025,1.878-2.795,0-2.984  C26.929,28.33,6.898,97.043,15.219,134.528c10.84,48.828,79.145,63.229,119.95,48.254c36.434-13.371,54.316-54.484,53.692-91.04  C188.341,61.201,169.713,28.553,135.073,35.454z M136.964,42.385c-0.943-0.209-1.906-0.372-2.904-0.458  c-0.038-0.003-0.063,0.014-0.1,0.012c0.354-0.302,0.709-0.603,1.123-0.882c0.243,0.051,0.479,0.115,0.76,0.087  c2.227-0.221,4.331-0.24,6.38-0.171C140.134,40.882,138.197,41.213,136.964,42.385z M50.156,158.728  c0.392-0.193,0.711-0.491,0.976-0.849c0.42,0.321,0.825,0.663,1.246,0.982c0.645,0.71,1.288,1.421,1.942,2.124  C52.927,160.245,51.542,159.486,50.156,158.728z M57.091,152.26c-0.94-1.43-1.864-2.867-2.768-4.311  c2.357,2.314,4.902,4.422,7.577,6.35C60.307,153.604,58.704,152.924,57.091,152.26z M97.264,168.056  c-0.38-0.439-0.854-0.83-1.549-1.064c-0.946-0.319-1.882-0.659-2.825-0.982c1.817,0.165,3.653,0.253,5.504,0.254  c1.169,0,2.333-0.108,3.498-0.206C100.351,166.718,98.809,167.384,97.264,168.056z M140.937,144.632  c2.469-2.648,4.792-5.455,6.952-8.393c-1.237,2.228-2.399,4.505-3.502,6.823C143.209,143.546,142.062,144.076,140.937,144.632z   M162.097,135.63c-1.843,2.578-3.618,5.207-5.346,7.865c0.009-0.688-0.179-1.338-0.538-1.883c2.37-2.924,4.701-5.879,6.999-8.858  C162.849,133.715,162.508,134.689,162.097,135.63z" sketchjs:uid="1" fill="#ffffff" stroke="transparent"></path>
</svg>